<svg width="379" height="22" viewBox="0 0 379 22" fill="none" xmlns="http://www.w3.org/2000/svg">
<path d="M3.17791 5.318L6.38191 12.266L9.58591 5.318H12.5199V17H10.3779V8.126L7.06591 15.722H5.67991L2.25991 7.874V17H0.135914V5.318H3.17791ZM18.7483 11.888C19.4443 11.888 20.2483 12.002 21.1603 12.23V11.366C21.1603 10.754 21.0343 10.304 20.7823 10.016C20.5423 9.716 20.1403 9.566 19.5763 9.566C19.0243 9.566 18.5983 9.68 18.2983 9.908C17.9983 10.124 17.8483 10.436 17.8483 10.844H15.5263C15.5263 9.848 15.8743 9.128 16.5703 8.684C17.2783 8.24 18.2623 8.018 19.5223 8.018C21.3223 8.018 22.4863 8.648 23.0143 9.908C23.1943 10.34 23.2843 10.85 23.2843 11.438V17H21.4303L21.2683 15.83C20.7043 16.778 19.8403 17.252 18.6763 17.252C17.5483 17.252 16.6723 16.976 16.0483 16.424C15.4723 15.896 15.1843 15.23 15.1843 14.426C15.1843 13.61 15.5023 12.986 16.1383 12.554C16.7743 12.11 17.6443 11.888 18.7483 11.888ZM21.1603 13.58C20.4523 13.388 19.7923 13.292 19.1803 13.292C18.0283 13.292 17.4523 13.676 17.4523 14.444C17.4523 14.768 17.5843 15.05 17.8483 15.29C18.1123 15.518 18.5323 15.632 19.1083 15.632C19.6963 15.632 20.1763 15.44 20.5483 15.056C20.9323 14.66 21.1363 14.168 21.1603 13.58ZM29.4761 12.734L28.5041 13.544V17H26.3801V4.652H28.5041V11.33L31.9601 8.252H34.8401L30.9701 11.492L35.0561 17H32.4641L29.4761 12.734ZM42.8356 9.296C43.1356 9.68 43.3576 10.124 43.5016 10.628C43.6576 11.132 43.7356 11.594 43.7356 12.014C43.7356 12.434 43.7116 12.812 43.6636 13.148H38.0116C38.0356 13.856 38.2096 14.432 38.5336 14.876C38.8576 15.32 39.3496 15.542 40.0096 15.542C40.8856 15.542 41.4076 15.158 41.5756 14.39H43.7176C43.5736 15.266 43.1716 15.956 42.5116 16.46C41.8276 16.988 40.9936 17.252 40.0096 17.252C38.8576 17.252 37.8916 16.832 37.1116 15.992C36.3076 15.116 35.9056 13.994 35.9056 12.626C35.9056 11.222 36.3076 10.094 37.1116 9.242C37.8796 8.426 38.8456 8.018 40.0096 8.018C41.2216 8.018 42.1636 8.444 42.8356 9.296ZM40.0276 9.71C39.4276 9.71 38.9596 9.908 38.6236 10.304C38.2876 10.688 38.0896 11.186 38.0296 11.798H41.7556C41.7556 10.85 41.4556 10.214 40.8556 9.89C40.6276 9.77 40.3516 9.71 40.0276 9.71ZM51.6052 8.252L53.3692 14.498L55.0432 8.738H56.9692L58.6432 14.516L60.4252 8.252H62.5492L59.6692 17H57.5812L55.9612 11.762L54.3772 17H52.2712L49.3732 8.252H51.6052ZM64.6519 8.234H66.7759V17H64.6519V8.234ZM64.3999 5.426C64.3999 5.042 64.5139 4.742 64.7419 4.526C64.9699 4.298 65.2939 4.184 65.7139 4.184C66.1219 4.184 66.4399 4.298 66.6679 4.526C66.9079 4.742 67.0279 5.042 67.0279 5.426C67.0279 5.81 66.9079 6.116 66.6679 6.344C66.4399 6.56 66.1219 6.668 65.7139 6.668C65.2939 6.668 64.9699 6.56 64.7419 6.344C64.5139 6.116 64.3999 5.81 64.3999 5.426ZM75.3101 16.784C74.5181 17.096 73.8941 17.252 73.4381 17.252C72.9821 17.252 72.5801 17.198 72.2321 17.09C71.8961 16.982 71.5961 16.82 71.3321 16.604C70.7801 16.112 70.5041 15.434 70.5041 14.57V9.674H69.2801V8.252H70.5041V5.948H72.6281V8.252H75.0041V9.674H72.6281V14.498C72.6281 15.218 72.9701 15.578 73.6541 15.578C74.0021 15.578 74.4521 15.482 75.0041 15.29L75.3101 16.784ZM79.6037 9.674C80.2037 8.57 81.0797 8.018 82.2317 8.018C83.3837 8.018 84.2297 8.372 84.7697 9.08C85.3217 9.788 85.5977 10.724 85.5977 11.888V17H83.4737V11.888C83.4737 11.24 83.3177 10.754 83.0057 10.43C82.6937 10.094 82.2557 9.926 81.6917 9.926C81.1277 9.926 80.6417 10.178 80.2337 10.682C79.8377 11.186 79.6277 11.942 79.6037 12.95V17H77.4797V4.652H79.6037V9.674ZM91.5732 18.26H109.573V0.26H91.5732V18.26ZM114.846 8.252H116.142V7.226C116.142 6.326 116.406 5.636 116.934 5.156C117.414 4.724 118.038 4.508 118.806 4.508C119.298 4.508 119.904 4.58 120.624 4.724L120.21 6.362C119.874 6.242 119.568 6.182 119.292 6.182C119.028 6.182 118.794 6.26 118.59 6.416C118.386 6.56 118.284 6.836 118.284 7.244V8.252H119.886V9.674H118.284V17H116.142V9.674H114.846V8.252ZM125.83 8.018C126.418 8.018 126.97 8.114 127.486 8.306C128.002 8.486 128.446 8.768 128.818 9.152C129.646 9.992 130.06 11.156 130.06 12.644C130.06 14.108 129.646 15.26 128.818 16.1C128.074 16.868 127.078 17.252 125.83 17.252C124.582 17.252 123.574 16.868 122.806 16.1C121.978 15.272 121.564 14.12 121.564 12.644C121.564 11.144 121.978 9.98 122.806 9.152C123.562 8.396 124.57 8.018 125.83 8.018ZM127.936 12.626C127.936 11.702 127.756 11.012 127.396 10.556C127.036 10.088 126.532 9.854 125.884 9.854C125.248 9.854 124.726 10.088 124.318 10.556C123.91 11.012 123.706 11.702 123.706 12.626C123.706 13.55 123.886 14.246 124.246 14.714C124.618 15.17 125.122 15.398 125.758 15.398C126.394 15.398 126.916 15.17 127.324 14.714C127.732 14.246 127.936 13.55 127.936 12.626ZM134.711 9.98C135.239 8.72 136.031 8.09 137.087 8.09C137.291 8.09 137.549 8.132 137.861 8.216L137.825 10.34C137.489 10.268 137.159 10.232 136.835 10.232C135.419 10.232 134.711 11.21 134.711 13.166V17H132.587V8.234H134.711V9.98ZM149.56 16.784C148.768 17.096 148.144 17.252 147.688 17.252C147.232 17.252 146.83 17.198 146.482 17.09C146.146 16.982 145.846 16.82 145.582 16.604C145.03 16.112 144.754 15.434 144.754 14.57V9.674H143.53V8.252H144.754V5.948H146.878V8.252H149.254V9.674H146.878V14.498C146.878 15.218 147.22 15.578 147.904 15.578C148.252 15.578 148.702 15.482 149.254 15.29L149.56 16.784ZM153.854 9.674C154.454 8.57 155.33 8.018 156.482 8.018C157.634 8.018 158.48 8.372 159.02 9.08C159.572 9.788 159.848 10.724 159.848 11.888V17H157.724V11.888C157.724 11.24 157.568 10.754 157.256 10.43C156.944 10.094 156.506 9.926 155.942 9.926C155.378 9.926 154.892 10.178 154.484 10.682C154.088 11.186 153.878 11.942 153.854 12.95V17H151.73V4.652H153.854V9.674ZM169.047 9.296C169.347 9.68 169.569 10.124 169.713 10.628C169.869 11.132 169.947 11.594 169.947 12.014C169.947 12.434 169.923 12.812 169.875 13.148H164.223C164.247 13.856 164.421 14.432 164.745 14.876C165.069 15.32 165.561 15.542 166.221 15.542C167.097 15.542 167.619 15.158 167.787 14.39H169.929C169.785 15.266 169.383 15.956 168.723 16.46C168.039 16.988 167.205 17.252 166.221 17.252C165.069 17.252 164.103 16.832 163.323 15.992C162.519 15.116 162.117 13.994 162.117 12.626C162.117 11.222 162.519 10.094 163.323 9.242C164.091 8.426 165.057 8.018 166.221 8.018C167.433 8.018 168.375 8.444 169.047 9.296ZM166.239 9.71C165.639 9.71 165.171 9.908 164.835 10.304C164.499 10.688 164.301 11.186 164.241 11.798H167.967C167.967 10.85 167.667 10.214 167.067 9.89C166.839 9.77 166.563 9.71 166.239 9.71ZM180.084 5.318L183.288 12.266L186.492 5.318H189.426V17H187.284V8.126L183.972 15.722H182.586L179.166 7.874V17H177.042V5.318H180.084ZM196.213 8.018C196.801 8.018 197.353 8.114 197.869 8.306C198.385 8.486 198.829 8.768 199.201 9.152C200.029 9.992 200.443 11.156 200.443 12.644C200.443 14.108 200.029 15.26 199.201 16.1C198.457 16.868 197.461 17.252 196.213 17.252C194.965 17.252 193.957 16.868 193.189 16.1C192.361 15.272 191.947 14.12 191.947 12.644C191.947 11.144 192.361 9.98 193.189 9.152C193.945 8.396 194.953 8.018 196.213 8.018ZM198.319 12.626C198.319 11.702 198.139 11.012 197.779 10.556C197.419 10.088 196.915 9.854 196.267 9.854C195.631 9.854 195.109 10.088 194.701 10.556C194.293 11.012 194.089 11.702 194.089 12.626C194.089 13.55 194.269 14.246 194.629 14.714C195.001 15.17 195.505 15.398 196.141 15.398C196.777 15.398 197.299 15.17 197.707 14.714C198.115 14.246 198.319 13.55 198.319 12.626ZM210.314 9.278C211.058 10.118 211.43 11.222 211.43 12.59C211.43 13.958 211.04 15.086 210.26 15.974C209.504 16.826 208.562 17.252 207.434 17.252C206.894 17.252 206.396 17.108 205.94 16.82C205.496 16.532 205.142 16.088 204.878 15.488L204.356 17H202.97V4.652H205.094V9.35C205.646 8.462 206.468 8.018 207.56 8.018C208.664 8.018 209.582 8.438 210.314 9.278ZM205.094 12.086V13.238C205.118 13.85 205.34 14.354 205.76 14.75C206.156 15.134 206.636 15.326 207.2 15.326C207.776 15.326 208.268 15.08 208.676 14.588C209.084 14.084 209.288 13.424 209.288 12.608C209.288 11.792 209.084 11.144 208.676 10.664C208.28 10.172 207.782 9.926 207.182 9.926C206.582 9.926 206.084 10.124 205.688 10.52C205.292 10.916 205.094 11.438 205.094 12.086ZM218.095 5.318C219.415 5.318 220.441 5.642 221.173 6.29C221.917 6.926 222.289 7.844 222.289 9.044C222.289 10.232 221.917 11.15 221.173 11.798C220.441 12.434 219.415 12.752 218.095 12.752H216.115V17H213.973V5.318H218.095ZM218.095 10.898C218.755 10.898 219.253 10.724 219.589 10.376C219.925 10.028 220.093 9.584 220.093 9.044C220.093 8.492 219.925 8.042 219.589 7.694C219.253 7.334 218.755 7.154 218.095 7.154H216.115V10.898H218.095ZM226.61 9.98C227.138 8.72 227.93 8.09 228.986 8.09C229.19 8.09 229.448 8.132 229.76 8.216L229.724 10.34C229.388 10.268 229.058 10.232 228.734 10.232C227.318 10.232 226.61 11.21 226.61 13.166V17H224.486V8.234H226.61V9.98ZM235.412 8.018C236 8.018 236.552 8.114 237.068 8.306C237.584 8.486 238.028 8.768 238.4 9.152C239.228 9.992 239.642 11.156 239.642 12.644C239.642 14.108 239.228 15.26 238.4 16.1C237.656 16.868 236.66 17.252 235.412 17.252C234.164 17.252 233.156 16.868 232.388 16.1C231.56 15.272 231.146 14.12 231.146 12.644C231.146 11.144 231.56 9.98 232.388 9.152C233.144 8.396 234.152 8.018 235.412 8.018ZM237.518 12.626C237.518 11.702 237.338 11.012 236.978 10.556C236.618 10.088 236.114 9.854 235.466 9.854C234.83 9.854 234.308 10.088 233.9 10.556C233.492 11.012 233.288 11.702 233.288 12.626C233.288 13.55 233.468 14.246 233.828 14.714C234.2 15.17 234.704 15.398 235.34 15.398C235.976 15.398 236.498 15.17 236.906 14.714C237.314 14.246 237.518 13.55 237.518 12.626ZM242.925 13.418C242.217 12.818 241.863 12.068 241.863 11.168C241.863 10.22 242.235 9.452 242.979 8.864C243.699 8.3 244.521 8.018 245.445 8.018C246.381 8.018 247.161 8.192 247.785 8.54C247.857 7.856 248.151 7.304 248.667 6.884C249.171 6.464 249.765 6.254 250.449 6.254L250.341 8.288C249.309 8.288 248.775 8.63 248.739 9.314C249.183 9.866 249.405 10.43 249.405 11.006C249.405 11.582 249.303 12.068 249.099 12.464C248.895 12.848 248.619 13.172 248.271 13.436C247.551 14.012 246.675 14.3 245.643 14.3C245.055 14.3 244.521 14.21 244.041 14.03C243.561 14.174 243.321 14.462 243.321 14.894C243.321 15.434 243.777 15.704 244.689 15.704H247.623C249.615 15.704 250.611 16.4 250.611 17.792C250.611 18.26 250.491 18.716 250.251 19.16C250.023 19.616 249.687 20.018 249.243 20.366C248.259 21.134 247.023 21.518 245.535 21.518C244.095 21.518 242.925 21.224 242.025 20.636C241.185 20.072 240.765 19.382 240.765 18.566C240.765 18.026 240.927 17.594 241.251 17.27C241.587 16.958 242.025 16.76 242.565 16.676C241.857 16.244 241.503 15.71 241.503 15.074C241.503 14.654 241.635 14.306 241.899 14.03C242.163 13.742 242.505 13.538 242.925 13.418ZM244.545 17.198C243.417 17.246 242.853 17.672 242.853 18.476C242.853 18.884 243.087 19.208 243.555 19.448C244.035 19.7 244.599 19.826 245.247 19.826C245.895 19.826 246.399 19.772 246.759 19.664C247.131 19.556 247.443 19.412 247.695 19.232C248.235 18.872 248.505 18.44 248.505 17.936C248.505 17.72 248.427 17.54 248.271 17.396C248.127 17.264 247.911 17.198 247.623 17.198H244.545ZM247.299 11.15C247.299 10.658 247.161 10.262 246.885 9.962C246.621 9.65 246.213 9.494 245.661 9.494C245.109 9.494 244.689 9.65 244.401 9.962C244.113 10.262 243.969 10.658 243.969 11.15C243.969 11.63 244.113 12.026 244.401 12.338C244.689 12.65 245.109 12.806 245.661 12.806C246.213 12.806 246.621 12.65 246.885 12.338C247.161 12.026 247.299 11.63 247.299 11.15ZM254.77 9.98C255.298 8.72 256.09 8.09 257.146 8.09C257.35 8.09 257.608 8.132 257.92 8.216L257.884 10.34C257.548 10.268 257.218 10.232 256.894 10.232C255.478 10.232 254.77 11.21 254.77 13.166V17H252.646V8.234H254.77V9.98ZM263.014 11.888C263.71 11.888 264.514 12.002 265.426 12.23V11.366C265.426 10.754 265.3 10.304 265.048 10.016C264.808 9.716 264.406 9.566 263.842 9.566C263.29 9.566 262.864 9.68 262.564 9.908C262.264 10.124 262.114 10.436 262.114 10.844H259.792C259.792 9.848 260.14 9.128 260.836 8.684C261.544 8.24 262.528 8.018 263.788 8.018C265.588 8.018 266.752 8.648 267.28 9.908C267.46 10.34 267.55 10.85 267.55 11.438V17H265.696L265.534 15.83C264.97 16.778 264.106 17.252 262.942 17.252C261.814 17.252 260.938 16.976 260.314 16.424C259.738 15.896 259.45 15.23 259.45 14.426C259.45 13.61 259.768 12.986 260.404 12.554C261.04 12.11 261.91 11.888 263.014 11.888ZM265.426 13.58C264.718 13.388 264.058 13.292 263.446 13.292C262.294 13.292 261.718 13.676 261.718 14.444C261.718 14.768 261.85 15.05 262.114 15.29C262.378 15.518 262.798 15.632 263.374 15.632C263.962 15.632 264.442 15.44 264.814 15.056C265.198 14.66 265.402 14.168 265.426 13.58ZM278.422 9.908C278.986 8.648 279.976 8.018 281.392 8.018C282.436 8.018 283.246 8.372 283.822 9.08C284.374 9.752 284.65 10.688 284.65 11.888V17H282.508V11.888C282.508 11.24 282.352 10.754 282.04 10.43C281.728 10.094 281.29 9.926 280.726 9.926C280.162 9.926 279.7 10.172 279.34 10.664C278.98 11.156 278.788 11.9 278.764 12.896V17H276.64V11.888C276.64 11.24 276.484 10.754 276.172 10.43C275.86 10.094 275.422 9.926 274.858 9.926C274.294 9.926 273.808 10.178 273.4 10.682C273.004 11.186 272.794 11.942 272.77 12.95V17H270.646V8.252H272.5L272.734 9.764C273.31 8.6 274.234 8.018 275.506 8.018C276.238 8.018 276.844 8.186 277.324 8.522C277.816 8.858 278.182 9.32 278.422 9.908ZM295.508 9.908C296.072 8.648 297.062 8.018 298.478 8.018C299.522 8.018 300.332 8.372 300.908 9.08C301.46 9.752 301.736 10.688 301.736 11.888V17H299.594V11.888C299.594 11.24 299.438 10.754 299.126 10.43C298.814 10.094 298.376 9.926 297.812 9.926C297.248 9.926 296.786 10.172 296.426 10.664C296.066 11.156 295.874 11.9 295.85 12.896V17H293.726V11.888C293.726 11.24 293.57 10.754 293.258 10.43C292.946 10.094 292.508 9.926 291.944 9.926C291.38 9.926 290.894 10.178 290.486 10.682C290.09 11.186 289.88 11.942 289.856 12.95V17H287.732V8.252H289.586L289.82 9.764C290.396 8.6 291.32 8.018 292.592 8.018C293.324 8.018 293.93 8.186 294.41 8.522C294.902 8.858 295.268 9.32 295.508 9.908ZM304.998 8.234H307.122V17H304.998V8.234ZM304.746 5.426C304.746 5.042 304.86 4.742 305.088 4.526C305.316 4.298 305.64 4.184 306.06 4.184C306.468 4.184 306.786 4.298 307.014 4.526C307.254 4.742 307.374 5.042 307.374 5.426C307.374 5.81 307.254 6.116 307.014 6.344C306.786 6.56 306.468 6.668 306.06 6.668C305.64 6.668 305.316 6.56 305.088 6.344C304.86 6.116 304.746 5.81 304.746 5.426ZM312.812 9.764C313.388 8.6 314.312 8.018 315.584 8.018C316.664 8.018 317.474 8.372 318.014 9.08C318.566 9.788 318.842 10.724 318.842 11.888V17H316.718V11.888C316.718 11.24 316.562 10.754 316.25 10.43C315.938 10.094 315.5 9.926 314.936 9.926C314.372 9.926 313.886 10.178 313.478 10.682C313.082 11.186 312.872 11.942 312.848 12.95V17H310.724V8.252H312.578L312.812 9.764ZM322.695 13.418C321.987 12.818 321.633 12.068 321.633 11.168C321.633 10.22 322.005 9.452 322.749 8.864C323.469 8.3 324.291 8.018 325.215 8.018C326.151 8.018 326.931 8.192 327.555 8.54C327.627 7.856 327.921 7.304 328.437 6.884C328.941 6.464 329.535 6.254 330.219 6.254L330.111 8.288C329.079 8.288 328.545 8.63 328.509 9.314C328.953 9.866 329.175 10.43 329.175 11.006C329.175 11.582 329.073 12.068 328.869 12.464C328.665 12.848 328.389 13.172 328.041 13.436C327.321 14.012 326.445 14.3 325.413 14.3C324.825 14.3 324.291 14.21 323.811 14.03C323.331 14.174 323.091 14.462 323.091 14.894C323.091 15.434 323.547 15.704 324.459 15.704H327.393C329.385 15.704 330.381 16.4 330.381 17.792C330.381 18.26 330.261 18.716 330.021 19.16C329.793 19.616 329.457 20.018 329.013 20.366C328.029 21.134 326.793 21.518 325.305 21.518C323.865 21.518 322.695 21.224 321.795 20.636C320.955 20.072 320.535 19.382 320.535 18.566C320.535 18.026 320.697 17.594 321.021 17.27C321.357 16.958 321.795 16.76 322.335 16.676C321.627 16.244 321.273 15.71 321.273 15.074C321.273 14.654 321.405 14.306 321.669 14.03C321.933 13.742 322.275 13.538 322.695 13.418ZM324.315 17.198C323.187 17.246 322.623 17.672 322.623 18.476C322.623 18.884 322.857 19.208 323.325 19.448C323.805 19.7 324.369 19.826 325.017 19.826C325.665 19.826 326.169 19.772 326.529 19.664C326.901 19.556 327.213 19.412 327.465 19.232C328.005 18.872 328.275 18.44 328.275 17.936C328.275 17.72 328.197 17.54 328.041 17.396C327.897 17.264 327.681 17.198 327.393 17.198H324.315ZM327.069 11.15C327.069 10.658 326.931 10.262 326.655 9.962C326.391 9.65 325.983 9.494 325.431 9.494C324.879 9.494 324.459 9.65 324.171 9.962C323.883 10.262 323.739 10.658 323.739 11.15C323.739 11.63 323.883 12.026 324.171 12.338C324.459 12.65 324.879 12.806 325.431 12.806C325.983 12.806 326.391 12.65 326.655 12.338C326.931 12.026 327.069 11.63 327.069 11.15ZM341.9 16.784C341.108 17.096 340.484 17.252 340.028 17.252C339.572 17.252 339.17 17.198 338.822 17.09C338.486 16.982 338.186 16.82 337.922 16.604C337.37 16.112 337.094 15.434 337.094 14.57V9.674H335.87V8.252H337.094V5.948H339.218V8.252H341.594V9.674H339.218V14.498C339.218 15.218 339.56 15.578 340.244 15.578C340.592 15.578 341.042 15.482 341.594 15.29L341.9 16.784ZM350.172 9.296C350.472 9.68 350.694 10.124 350.838 10.628C350.994 11.132 351.072 11.594 351.072 12.014C351.072 12.434 351.048 12.812 351 13.148H345.348C345.372 13.856 345.546 14.432 345.87 14.876C346.194 15.32 346.686 15.542 347.346 15.542C348.222 15.542 348.744 15.158 348.912 14.39H351.054C350.91 15.266 350.508 15.956 349.848 16.46C349.164 16.988 348.33 17.252 347.346 17.252C346.194 17.252 345.228 16.832 344.448 15.992C343.644 15.116 343.242 13.994 343.242 12.626C343.242 11.222 343.644 10.094 344.448 9.242C345.216 8.426 346.182 8.018 347.346 8.018C348.558 8.018 349.5 8.444 350.172 9.296ZM347.364 9.71C346.764 9.71 346.296 9.908 345.96 10.304C345.624 10.688 345.426 11.186 345.366 11.798H349.092C349.092 10.85 348.792 10.214 348.192 9.89C347.964 9.77 347.688 9.71 347.364 9.71ZM356.494 11.888C357.19 11.888 357.994 12.002 358.906 12.23V11.366C358.906 10.754 358.78 10.304 358.528 10.016C358.288 9.716 357.886 9.566 357.322 9.566C356.77 9.566 356.344 9.68 356.044 9.908C355.744 10.124 355.594 10.436 355.594 10.844H353.272C353.272 9.848 353.62 9.128 354.316 8.684C355.024 8.24 356.008 8.018 357.268 8.018C359.068 8.018 360.232 8.648 360.76 9.908C360.94 10.34 361.03 10.85 361.03 11.438V17H359.176L359.014 15.83C358.45 16.778 357.586 17.252 356.422 17.252C355.294 17.252 354.418 16.976 353.794 16.424C353.218 15.896 352.93 15.23 352.93 14.426C352.93 13.61 353.248 12.986 353.884 12.554C354.52 12.11 355.39 11.888 356.494 11.888ZM358.906 13.58C358.198 13.388 357.538 13.292 356.926 13.292C355.774 13.292 355.198 13.676 355.198 14.444C355.198 14.768 355.33 15.05 355.594 15.29C355.858 15.518 356.278 15.632 356.854 15.632C357.442 15.632 357.922 15.44 358.294 15.056C358.678 14.66 358.882 14.168 358.906 13.58ZM371.902 9.908C372.466 8.648 373.456 8.018 374.872 8.018C375.916 8.018 376.726 8.372 377.302 9.08C377.854 9.752 378.13 10.688 378.13 11.888V17H375.988V11.888C375.988 11.24 375.832 10.754 375.52 10.43C375.208 10.094 374.77 9.926 374.206 9.926C373.642 9.926 373.18 10.172 372.82 10.664C372.46 11.156 372.268 11.9 372.244 12.896V17H370.12V11.888C370.12 11.24 369.964 10.754 369.652 10.43C369.34 10.094 368.902 9.926 368.338 9.926C367.774 9.926 367.288 10.178 366.88 10.682C366.484 11.186 366.274 11.942 366.25 12.95V17H364.126V8.252H365.98L366.214 9.764C366.79 8.6 367.714 8.018 368.986 8.018C369.718 8.018 370.324 8.186 370.804 8.522C371.296 8.858 371.662 9.32 371.902 9.908Z" fill="#212121"/>
</svg>